<svg width="40" height="40" viewBox="0 0 40 40" fill="none" xmlns="http://www.w3.org/2000/svg">
<rect width="40" height="40" rx="10" fill="#11ACE4"/>
<g clip-path="url(#clip0_2001_77)">
<path d="M31.9999 19.2989V20.7052C31.9634 21.0059 31.9335 21.3077 31.89 21.6078C31.4796 24.4375 30.267 26.8649 28.1513 28.7921C25.187 31.4921 21.6919 32.4827 17.7488 31.7816C15.178 31.3247 12.9847 30.1063 11.2248 28.1773C8.5166 25.2085 7.51541 21.7111 8.21654 17.7592C8.68337 15.1286 9.96056 12.916 11.9342 11.118C13.65 9.5549 15.6606 8.57369 17.952 8.18321C18.3971 8.10746 18.8463 8.06048 19.2937 8C19.7623 8 20.2315 8 20.7001 8C20.7606 8.01292 20.8205 8.03347 20.8816 8.03817C22.898 8.18438 24.7695 8.78802 26.4595 9.89489C29.3915 11.815 31.183 14.5079 31.8155 17.9601C31.8965 18.4028 31.9394 18.8526 31.9999 19.2995V19.2989ZM23.1934 26.2725C23.7049 26.2719 24.1805 26.175 24.6368 25.9689C25.2228 25.7041 25.6444 25.2408 26.086 24.8004C26.3984 24.4891 26.3973 24.2302 26.0825 23.9137C25.3943 23.2214 24.7043 22.5302 24.0132 21.8409C23.6849 21.5132 23.4242 21.5173 23.0912 21.8532C22.7172 22.2302 22.3484 22.6124 21.972 22.9871C21.5246 23.4316 20.979 23.4745 20.4682 23.1104C19.1158 22.1462 17.9426 20.9988 16.9513 19.6659C16.5403 19.1127 16.5761 18.5854 17.0641 18.0928C17.4599 17.6935 17.8621 17.3001 18.2555 16.8984C18.5262 16.6218 18.528 16.3529 18.2555 16.0775C17.5415 15.3558 16.8233 14.6371 16.1016 13.9237C15.838 13.6629 15.5679 13.6659 15.2983 13.9248C15.0394 14.1738 14.7845 14.4275 14.5426 14.6929C13.8738 15.4257 13.5819 16.286 13.7093 17.276C13.8068 18.0311 14.1198 18.7164 14.4692 19.377C15.9255 22.1245 18.0518 24.1967 20.8463 25.5637C21.588 25.9266 22.3643 26.222 23.194 26.2736L23.1934 26.2725Z" fill="white"/>
</g>
<defs>
<clipPath id="clip0_2001_77">
<rect width="24" height="24" fill="white" transform="translate(8 8)"/>
</clipPath>
</defs>
</svg>
