<svg width="18" height="20" viewBox="0 0 18 20" fill="none" xmlns="http://www.w3.org/2000/svg">
<g clip-path="url(#clip0_2_814)">
<path d="M15.9173 20.0002C15.7733 19.8932 15.6152 19.8009 15.4879 19.6767C14.948 19.1488 14.4153 18.6135 13.8858 18.0746C13.7825 17.9698 13.6803 17.9233 13.53 17.9238C12.0067 17.9291 10.4828 17.9275 8.95949 17.927C8.06897 17.927 7.56345 17.4246 7.56345 16.5388C7.56345 13.9872 7.56241 11.4351 7.56345 8.88349C7.56345 8.23242 7.92863 7.74412 8.52284 7.60431C8.64752 7.5751 8.78055 7.57144 8.90993 7.57092C11.4688 7.56936 14.0277 7.56884 16.5866 7.56988C17.4202 7.56988 17.9221 8.07279 17.9226 8.90801C17.9242 11.4335 17.9091 13.9595 17.9315 16.485C17.9383 17.2681 17.5168 17.8644 16.6617 17.9395C16.6617 18.3715 16.6481 18.8065 16.6659 19.2401C16.681 19.6136 16.5407 19.8666 16.1896 19.9996H15.9162L15.9173 20.0002ZM16.0305 19.4002C16.0461 19.3955 16.0618 19.3908 16.0769 19.3861C16.0769 19.3235 16.0769 19.2615 16.0769 19.1989C16.0769 18.7366 16.0769 18.2749 16.0769 17.8127C16.0769 17.4048 16.1405 17.3416 16.5527 17.3406C17.0968 17.3396 17.3378 17.0996 17.3378 16.5544C17.3378 14.0169 17.3378 11.4794 17.3378 8.9414C17.3378 8.38893 17.1062 8.15469 16.5595 8.15417C14.0214 8.15417 11.4829 8.15417 8.94489 8.15417C8.38407 8.15417 8.14931 8.38841 8.14931 8.94766C8.14931 11.4789 8.14931 14.0096 8.14931 16.5408C8.14931 17.0938 8.3945 17.3396 8.94541 17.3396C10.5204 17.3396 12.0954 17.3437 13.6703 17.3349C13.8915 17.3338 14.0475 17.4022 14.1999 17.5581C14.804 18.1774 15.419 18.7862 16.0305 19.3987V19.4002Z" fill="#4F4F4F"/>
<path d="M1.84939 11.8637C1.93286 11.787 1.98451 11.7427 2.0325 11.6947C2.61732 11.1104 3.2037 10.5282 3.78434 9.93974C3.90276 9.81976 4.02953 9.76707 4.19908 9.76863C4.96074 9.77489 5.72241 9.77124 6.48408 9.77124C6.5232 9.77124 6.56233 9.76915 6.60094 9.7728C6.77988 9.79054 6.89778 9.91731 6.88943 10.0796C6.8816 10.2335 6.7637 10.3493 6.59102 10.3534C6.34374 10.3602 6.09646 10.3561 5.84918 10.3566C5.36766 10.3566 4.88562 10.3628 4.4041 10.3529C4.25333 10.3498 4.15108 10.4004 4.04831 10.5047C3.47706 11.0838 2.90268 11.6603 2.32256 12.231C1.96781 12.58 1.42369 12.4543 1.29014 11.9978C1.2651 11.9123 1.26458 11.8183 1.26406 11.7281C1.26145 11.28 1.26301 10.8318 1.26301 10.3764C1.14407 10.355 1.03556 10.342 0.930696 10.3154C0.41318 10.1849 0.0433026 9.74046 0.00782777 9.2099C0.00313256 9.13843 0.00208918 9.06696 0.00208918 8.99549C0.00208918 6.45121 0.00417594 3.90641 2.42724e-06 1.36161C-0.000519262 0.987558 0.082951 0.653155 0.350578 0.380311C0.616639 0.109033 0.942695 0 1.31988 0C3.68313 0.00313014 6.04586 0.00156507 8.40911 0.00156507C8.61726 0.00156507 8.82594 0.00156507 9.03409 0.00156507C9.84167 0.00313014 10.3613 0.522733 10.3623 1.33605C10.3639 2.90477 10.3623 4.47296 10.3623 6.04168C10.3623 6.21071 10.366 6.38026 10.3613 6.54929C10.3555 6.76422 10.2434 6.88682 10.0634 6.88525C9.88184 6.88369 9.7775 6.76474 9.7775 6.54303C9.77594 4.83136 9.77698 3.1197 9.77646 1.40804C9.77646 0.821139 9.54535 0.587422 8.96575 0.587422C6.43347 0.587422 3.90119 0.587422 1.36891 0.587422C0.823228 0.587422 0.587946 0.823747 0.587946 1.37413C0.587946 3.91215 0.587946 6.45069 0.587946 8.98871C0.587946 9.537 0.822706 9.7702 1.37204 9.77176C1.78001 9.7728 1.84887 9.84167 1.84939 10.247C1.84939 10.7223 1.84939 11.197 1.84939 11.6723C1.84939 11.7213 1.84939 11.7704 1.84939 11.8637Z" fill="#4F4F4F"/>
<path d="M7.37401 7.26907C7.29263 7.34785 7.22429 7.45531 7.12673 7.49809C6.98588 7.56017 6.85441 7.49288 6.78659 7.35254C6.72451 7.22421 6.6906 7.08178 6.62487 6.95658C6.5967 6.90285 6.51844 6.84233 6.46262 6.84181C5.6034 6.8345 4.7447 6.83398 3.88548 6.84233C3.82601 6.84285 3.7368 6.91119 3.71228 6.96962C3.58081 7.28055 3.46761 7.5993 3.34397 7.91336C3.2631 8.11838 3.1212 8.1935 2.95322 8.12986C2.7868 8.06673 2.72263 7.90762 2.79776 7.7099C3.45769 5.97372 4.12024 4.23806 4.78174 2.5024C4.85113 2.31981 4.97998 2.21286 5.17875 2.21338C5.37751 2.21338 5.50585 2.31928 5.57523 2.50292C6.15118 4.02782 6.72764 5.55271 7.30307 7.07813C7.32132 7.12613 7.32863 7.1783 7.34063 7.22838C7.35158 7.24194 7.36254 7.25551 7.37297 7.26959L7.37401 7.26907ZM6.36402 6.245C5.96806 5.1964 5.58306 4.17754 5.17875 3.10703C4.76818 4.18589 4.379 5.20788 3.98408 6.245H6.36402Z" fill="#4F4F4F"/>
<path d="M12.0293 11.582C11.6955 11.1944 11.5734 10.7749 11.7341 10.2986C12.0226 9.44305 13.1077 9.17647 13.7556 9.79937C13.9163 9.95379 13.9419 10.1317 13.8229 10.2621C13.7019 10.3941 13.5339 10.3831 13.3607 10.2313C13.1306 10.0305 12.874 9.98874 12.6209 10.1108C12.3857 10.2245 12.2307 10.4739 12.2521 10.7269C12.2751 11.0034 12.4144 11.2074 12.6789 11.3029C12.7801 11.3394 12.8954 11.3462 13.0044 11.3488C13.2777 11.355 13.5511 11.3472 13.8245 11.3535C14.0149 11.3577 14.1328 11.4683 14.1396 11.63C14.1464 11.799 14.0253 11.9258 13.8287 11.9331C13.536 11.9435 13.2423 11.9294 12.9501 11.9456C12.1013 11.9936 11.4304 12.6311 11.3162 13.4856C11.2093 14.2822 11.7106 15.0862 12.4921 15.3481C13.0216 15.5254 13.5313 15.466 14.0081 15.1686C14.0525 15.1409 14.0932 15.1081 14.137 15.0809C14.2961 14.9813 14.4542 15.0011 14.5533 15.1316C14.6581 15.2698 14.6321 15.4367 14.4735 15.5573C14.0321 15.8927 13.5318 16.0461 12.9783 16.0273C11.9589 15.9923 11.0632 15.2849 10.8039 14.3099C10.5326 13.2916 10.951 12.2393 11.8457 11.691C11.901 11.6571 11.9568 11.6253 12.0299 11.582H12.0293Z" fill="#4F4F4F"/>
</g>
<defs>
<clipPath id="clip0_2_814">
<rect width="17.932" height="20" fill="white"/>
</clipPath>
</defs>
</svg>
