<svg width="25" height="24" viewBox="0 0 25 24" fill="none" xmlns="http://www.w3.org/2000/svg">
<path d="M0 12.7488C0 12.249 0 11.7487 0 11.249C0.0137768 11.1807 0.0344419 11.1131 0.0400779 11.0448C0.203521 8.98707 0.832243 7.08086 2.00327 5.38068C4.36035 1.9559 7.63484 0.143001 11.8004 0.00648603C14.0824 -0.0680338 16.2247 0.499945 18.1728 1.69164C21.2814 3.59408 23.192 6.3413 23.862 9.92952C23.9434 10.3654 23.986 10.8081 24.0467 11.2477V12.7481C24.0117 13.0337 23.981 13.3199 23.9409 13.6048C23.6028 16.0032 22.6446 18.1236 21.034 19.9346C19.1792 22.0193 16.8709 23.3187 14.1174 23.814C13.6735 23.8942 13.2226 23.9386 12.7748 24H11.2719C10.9782 23.9637 10.6845 23.9324 10.3914 23.891C8.17339 23.5761 6.18076 22.7325 4.44927 21.311C2.15106 19.4249 0.719524 17.0177 0.186613 14.0895C0.106457 13.6461 0.0613693 13.1959 0 12.7488ZM12.0202 19.805C12.1104 19.7079 12.1874 19.6328 12.2557 19.5495C13.1493 18.4636 14.0667 17.3965 14.9271 16.2856C15.8846 15.0495 16.74 13.7438 17.3976 12.3173C17.876 11.279 18.1052 10.2157 17.8879 9.0666C17.4026 6.50161 15.3624 4.58476 12.7028 4.22907C10.2505 3.90156 7.73065 5.28612 6.64917 7.58184C6.1244 8.69525 5.89145 9.86252 6.20456 11.0855C6.42499 11.9466 6.817 12.7369 7.25848 13.5021C8.39507 15.4728 9.79779 17.2494 11.2801 18.9671C11.5186 19.2433 11.7635 19.5144 12.0202 19.8043V19.805Z" fill="#11ACE4"/>
<path d="M9.76564 10.0158C9.77065 8.77589 10.782 7.77582 12.0288 7.77833C13.2812 7.78083 14.2857 8.79843 14.2763 10.0546C14.2669 11.2914 13.248 12.289 12.0019 12.2815C10.7626 12.2739 9.76063 11.2595 9.76564 10.0158Z" fill="#11ACE4"/>
</svg>
