<svg width="240" height="66" viewBox="0 0 240 66" fill="none" xmlns="http://www.w3.org/2000/svg">
<path d="M187.771 5.59375C180.767 12.8635 177.415 21.5397 178.169 31.6177C178.779 39.7635 182.075 46.8076 187.963 52.4956C194.631 58.9363 202.679 62.0966 211.929 61.7591C221.152 61.4233 228.896 57.6578 235.236 50.7516C233.831 53.6312 228.99 59.0044 223.177 62.0544C218.168 64.6826 212.852 66.0356 207.184 65.9983C199.395 65.9464 192.452 63.448 186.413 58.5745C180.567 53.8567 176.749 47.7729 174.962 40.4448C171.295 25.4106 178.659 11.7846 187.771 5.59375Z" fill="#815FA9"/>
<path d="M214.621 57.6219C213.761 57.8003 212.909 58.0843 212.043 58.1378C209.754 58.2789 207.455 58.4217 205.165 58.3633C203.745 58.3276 202.336 57.9253 200.923 57.6835C199.213 57.3915 197.63 56.7361 196.066 56.0093C193.158 54.6595 190.694 52.7646 188.748 50.2013C187.216 48.1831 186.141 45.9654 186.223 43.3826C186.314 40.5581 187.903 38.4507 190.625 37.5341C192.922 36.7602 195.595 37.9267 196.788 40.1331C197.541 41.525 197.839 43.0322 197.991 44.5767C198.29 47.6104 199.362 50.2987 201.442 52.5553C202.646 53.8613 204.041 54.9028 205.677 55.594C206.93 56.1245 208.213 56.5511 209.584 56.7134C210.987 56.8805 212.375 57.166 213.774 57.3899C214.045 57.4337 214.327 57.4288 214.603 57.4467C214.609 57.5051 214.616 57.5619 214.622 57.6203L214.621 57.6219Z" fill="#11ACE4"/>
<path d="M206.44 49.1798C207.458 49.4524 208.469 49.7558 209.497 49.9877C211.622 50.468 213.777 50.6821 215.893 50.0348C218.638 49.196 220.231 47.2346 220.917 44.4864C221.313 42.9014 221.867 41.4088 223.131 40.2764C225.603 38.0619 229.881 38.7482 231.286 41.6084C231.926 42.9111 231.706 44.2495 231.365 45.575C230.402 49.3258 227.851 51.6734 224.507 53.2941C222.082 54.4686 219.497 54.9505 216.832 54.7347C213.407 54.4557 210.368 53.1708 207.817 50.8135C207.418 50.4436 207.02 50.0721 206.629 49.6941C206.511 49.5805 206.422 49.4378 206.32 49.308C206.359 49.2658 206.4 49.222 206.438 49.1798H206.44Z" fill="#815FA9"/>
<path d="M235.999 20.8863C235.239 19.749 234.512 18.5891 233.715 17.481C231.979 15.0718 229.813 13.1007 227.325 11.5043C225.504 10.3346 223.572 9.38391 221.482 8.74958C220.03 8.3083 218.585 7.85729 217.066 7.7924C214.673 7.68857 212.273 7.51822 209.887 7.62854C208.232 7.70479 206.591 8.18662 204.951 8.52083C202.342 9.05133 199.888 10.0458 197.541 11.2626C194.782 12.6951 192.244 14.4764 190.003 16.6569C189.923 16.7364 189.832 16.8045 189.691 16.8321C191.125 14.1082 193.037 11.7623 195.381 9.78625C200.612 5.37673 206.685 3.31312 213.485 3.72032C219.733 4.09346 225.179 6.51562 229.706 10.8894C232.626 13.7091 234.74 17.0511 235.999 20.8879V20.8863Z" fill="#11ACE4"/>
<path d="M182.169 30.7366C180.308 22.8017 182.797 11.0868 193.057 4.2373C195.751 2.43813 198.7 1.20678 201.858 0.548106C206.105 -0.337691 210.332 -0.143011 214.497 1.09646C216.196 1.60263 217.837 2.25805 219.326 3.27526C218.569 3.05462 217.817 2.81289 217.054 2.61983C214.064 1.86544 211.053 1.55233 207.959 1.91574C203.95 2.38784 200.26 3.68733 196.912 5.91805C194.42 7.57932 192.197 9.56669 190.243 11.8509C187.85 14.6479 185.927 17.7287 184.55 21.1437C183.484 23.7849 182.726 26.5153 182.369 29.3495C182.316 29.7697 182.249 30.1882 182.172 30.7366H182.169Z" fill="#6FC063"/>
<path d="M230.998 32.9937C231.157 35.7273 228.8 38.3377 225.75 38.3133C222.742 38.289 220.513 35.8474 220.508 32.9548C220.503 30.3201 222.884 27.6951 225.882 27.713C228.286 27.7276 231.204 30.0767 230.997 32.9937H230.998Z" fill="#815FA9"/>
<path d="M197.994 31.2285C198.301 34.2266 195.404 36.519 193.012 36.4979C189.994 36.4703 187.574 34.2591 187.582 31.3405C187.592 27.7713 190.239 25.9203 192.91 25.9219C195.622 25.9219 198.262 28.2386 197.992 31.2302L197.994 31.2285Z" fill="#11ACE4"/>
<path d="M209.18 42.385C207.256 42.4823 205.815 40.8746 205.786 39.0608C205.756 37.2 207.418 35.6117 209.308 35.6798C211.173 35.7464 212.545 37.2276 212.599 38.9343C212.665 41.0611 210.905 42.4969 209.18 42.385Z" fill="#72BF61"/>
<path d="M213.387 18.6195C214.132 16.3093 214.811 14.2083 215.507 12.0522C216.94 12.5292 218.388 12.8099 219.599 13.6941C220.575 14.4079 220.945 15.8501 220.52 17.208C220.09 18.5838 218.986 19.601 217.735 19.4696C216.314 19.3219 214.919 18.931 213.387 18.6195ZM215.516 17.7239C215.802 17.8278 216.02 17.9413 216.251 17.9868C217.024 18.136 217.822 18.1912 218.354 17.4871C218.844 16.8349 219.164 16.0756 218.824 15.232C218.537 14.515 217.911 14.2132 217.219 13.9812C216.869 13.8644 216.726 13.9098 216.616 14.2781C216.277 15.4105 215.9 16.5315 215.516 17.7239Z" fill="#835FA9"/>
<path d="M220.064 20.9266C221.579 19.1566 223.017 17.4759 224.525 15.7124C225.452 16.5933 226.407 17.3802 227.21 18.2984C228.332 19.5801 228.219 21.17 227.047 22.5327C225.99 23.7624 224.327 24.0658 222.967 23.1654C221.967 22.5019 221.058 21.7021 220.062 20.9266H220.064ZM224.936 17.9253C224.062 18.949 223.19 19.9678 222.327 20.9769C223.502 22.2877 224.731 22.4029 225.701 21.35C226.711 20.2533 226.486 19.1436 224.936 17.9253Z" fill="#835FA9"/>
<path d="M208.218 11.713C208.378 11.713 208.5 11.713 208.619 11.713C209.802 11.7043 210.611 12.2386 211.044 13.3159C211.666 14.8506 212.301 16.3805 212.924 17.9152C212.987 18.0726 213.008 18.2478 213.064 18.4863C212.79 18.4863 212.591 18.4635 212.398 18.4911C211.673 18.595 211.087 18.5106 210.931 17.6183C210.908 17.4918 210.62 17.3376 210.446 17.3247C209.904 17.2857 209.353 17.3539 208.815 17.2971C208.293 17.2435 208.034 17.4837 207.997 17.9363C207.947 18.5414 207.628 18.7183 207.085 18.6874C206.733 18.668 206.38 18.6842 205.938 18.6842C206.712 16.3172 207.463 14.0216 208.22 11.7146L208.218 11.713ZM210.244 15.8208C209.951 15.0923 209.673 14.4012 209.395 13.7101C209.348 13.7133 209.301 13.7182 209.256 13.7215C209.044 14.4693 208.831 15.2156 208.582 16.0917C209.217 15.9879 209.699 15.91 210.244 15.8208Z" fill="#11ACE4"/>
<path d="M214.215 48.2256C213.499 47.7584 212.878 47.2895 212.203 46.9261C209.94 45.7077 207.738 45.9835 205.609 47.3009C204.389 48.0569 203.369 49.0384 202.452 50.1351C202.38 50.2211 202.299 50.3006 202.102 50.5115C202.129 50.2097 202.105 50.0524 202.16 49.9323C203.046 48.0114 204.114 46.1928 205.79 44.8706C207.497 43.5241 209.411 43.0536 211.449 44.1649C212.945 44.9793 213.811 46.2983 214.235 47.9287C214.252 48.0001 214.226 48.0828 214.215 48.2288V48.2256Z" fill="#72BF61"/>
<path d="M193.485 18.3567C192.69 18.9716 191.943 19.5508 191.228 20.104C191.249 20.2305 191.243 20.2824 191.264 20.3068C192.072 21.2413 191.694 21.1731 192.695 20.4755C193.134 20.1689 193.546 19.8217 194.049 19.434C194.322 19.7698 194.591 20.0991 194.919 20.5015C194.178 21.079 193.48 21.6241 192.733 22.2065C193.036 22.6154 193.312 22.9901 193.601 23.3811C194.269 22.8749 194.914 22.4126 195.527 21.9097C195.911 21.5933 196.18 21.5852 196.422 22.054C196.511 22.2276 196.661 22.3704 196.849 22.6105C195.984 23.2838 195.14 23.9392 194.295 24.5962C194.217 24.6563 194.13 24.7066 194.054 24.7682C192.982 25.6216 192.994 25.6135 192.192 24.5297C191.224 23.2221 190.246 21.921 189.248 20.6361C188.985 20.2954 188.951 20.078 189.321 19.8039C190.297 19.0819 191.24 18.3129 192.234 17.6169C192.394 17.505 192.788 17.6072 193.005 17.7321C193.205 17.8473 193.314 18.1231 193.482 18.3535L193.485 18.3567Z" fill="#70C061"/>
<path d="M205.251 17.286C205.871 18.261 205.852 18.5092 204.864 19.1225C203.935 19.6984 202.941 19.992 201.795 19.7795C200.29 19.4988 199.588 18.4816 199.218 17.1643C198.607 14.9904 199.823 13.5238 201.662 12.9365C202.108 12.7937 202.588 12.7126 203.055 12.6915C203.885 12.6542 204.234 13.1247 204.098 14.0072C202.527 13.6876 201.34 14.4079 201.041 15.0682C200.629 15.98 201.017 17.4028 201.911 18.1296C202.462 18.5774 203.107 18.5757 203.71 18.2626C204.247 17.9852 204.737 17.6169 205.247 17.2892L205.251 17.286Z" fill="#70C061"/>
<path d="M196.289 15.2549C196.59 15.7854 196.892 16.2997 197.177 16.8253C197.877 18.1151 198.564 19.4113 199.268 20.6978C199.488 21.1002 199.456 21.2884 198.979 21.5009C197.915 21.9746 197.924 22.0217 197.382 21.0288C196.554 19.5119 195.746 17.9853 194.92 16.4668C194.757 16.165 194.817 15.993 195.13 15.8519C195.507 15.6832 195.866 15.4755 196.289 15.2549Z" fill="#70C061"/>
<path d="M199.502 35.1547C200.267 35.2672 200.906 35.0411 201.42 34.4766C201.42 34.7881 201.338 35.1628 201.445 35.4727C201.546 35.7679 201.844 35.9967 202.049 36.2465C201.361 36.0081 200.775 36.219 200.407 37.0382C200.638 36.1216 200.407 35.4808 199.5 35.1547H199.502Z" fill="#815FA9"/>
<path d="M208.562 25.589C209.114 25.7837 209.249 25.2629 209.495 24.833C209.49 25.5339 209.379 26.2315 210.05 26.7587C209.452 26.5478 209.135 26.7376 209.049 27.3509C208.874 26.7214 208.723 26.1682 208.562 25.589Z" fill="#11ACE4"/>
<path d="M216.917 44.4749C216.662 44.5463 216.337 44.6371 216.036 44.7199C215.899 44.4636 215.739 44.1618 215.602 43.9038C215.886 43.7741 216.245 43.6118 216.568 43.4658C216.659 43.727 216.79 44.1066 216.917 44.4749Z" fill="#72BF61"/>
<path d="M15.9339 17.14C15.9339 17.0067 16.0006 16.94 16.1339 16.94H19.1339C19.2672 16.94 19.3339 17.0067 19.3339 17.14V21.7C19.3339 21.98 19.4539 22.2133 19.6939 22.4C19.9339 22.5733 20.2739 22.66 20.7139 22.66H21.2739C21.8072 22.66 22.0739 23.1333 22.0739 24.08C22.0739 24.5333 22.0072 24.8867 21.8739 25.14C21.7539 25.38 21.5539 25.5 21.2739 25.5C20.8206 25.5 20.4406 25.4533 20.1339 25.36C19.8272 25.2533 19.5606 25.0667 19.3339 24.8V25.06C19.3339 26.6467 19.0006 27.8067 18.3339 28.54C17.6806 29.2733 16.6139 29.64 15.1339 29.64H14.0339C13.9006 29.64 13.8339 29.5733 13.8339 29.44V27C13.8339 26.8667 13.9006 26.8 14.0339 26.8H14.4339C15.0739 26.8 15.4806 26.62 15.6539 26.26C15.8406 25.9 15.9339 25.3667 15.9339 24.66V17.14ZM26.5134 16.7C27.1134 16.7267 27.6468 16.8133 28.1134 16.96C28.5801 17.1067 28.9734 17.3333 29.2934 17.64C29.6134 17.9333 29.8534 18.3133 30.0134 18.78C30.1734 19.2333 30.2534 19.7933 30.2534 20.46V21.74C30.2534 22.0067 30.3734 22.2267 30.6134 22.4C30.8668 22.5733 31.2068 22.66 31.6334 22.66H32.1934C32.7268 22.66 32.9934 23.1333 32.9934 24.08C32.9934 24.5333 32.9268 24.8867 32.7934 25.14C32.6734 25.38 32.4734 25.5 32.1934 25.5C31.6334 25.5 31.1601 25.4267 30.7734 25.28C30.3868 25.1333 30.0534 24.8267 29.7734 24.36C29.5068 24.7867 29.1534 25.0867 28.7134 25.26C28.2868 25.42 27.7668 25.5 27.1534 25.5H21.2734C21.0068 25.5 20.8068 25.3933 20.6734 25.18C20.5401 24.9667 20.4734 24.5667 20.4734 23.98C20.4734 23.46 20.5401 23.1133 20.6734 22.94C20.7934 22.7533 20.9934 22.66 21.2734 22.66H25.3534C25.6468 22.66 25.8868 22.6467 26.0734 22.62C26.2601 22.58 26.4001 22.52 26.4934 22.44C26.6001 22.36 26.6668 22.2467 26.6934 22.1C26.7334 21.9533 26.7534 21.7667 26.7534 21.54V20.78C26.7534 20.3133 26.6334 19.9867 26.3934 19.8C26.1534 19.6133 25.7534 19.52 25.1934 19.52H22.2934C22.1601 19.52 22.0934 19.4533 22.0934 19.32V17.42C22.0934 17.3133 22.1601 17.1933 22.2934 17.06C22.4268 16.9133 22.5401 16.7867 22.6334 16.68L26.8534 11.7C26.9468 11.58 27.0334 11.56 27.1134 11.64L29.1134 13.32C29.2334 13.4267 29.2601 13.52 29.1934 13.6L26.5134 16.7ZM33.7314 29.62C33.5981 29.62 33.5314 29.5533 33.5314 29.42V27.2C33.5314 27.0667 33.5981 27 33.7314 27H36.7714C36.9047 27 36.9714 27.0667 36.9714 27.2V29.42C36.9714 29.5533 36.9047 29.62 36.7714 29.62H33.7314ZM33.6314 17.14C33.6314 17.0067 33.6981 16.94 33.8314 16.94H36.8314C36.9647 16.94 37.0314 17.0067 37.0314 17.14V21.7C37.0714 21.98 37.1981 22.2133 37.4114 22.4C37.6381 22.5733 37.9714 22.66 38.4114 22.66H38.9714C39.5047 22.66 39.7714 23.1333 39.7714 24.08C39.7714 25.0267 39.5047 25.5 38.9714 25.5C38.4781 25.5 38.0447 25.44 37.6714 25.32C37.3114 25.1867 36.9981 24.9133 36.7314 24.5C36.5047 24.9533 36.1647 25.2333 35.7114 25.34C35.2714 25.4467 34.6581 25.5 33.8714 25.5H32.1714C31.9047 25.5 31.7047 25.4 31.5714 25.2C31.4381 25 31.3714 24.62 31.3714 24.06C31.3714 23.58 31.4381 23.2267 31.5714 23C31.6914 22.7733 31.9114 22.66 32.2314 22.66H32.6714C33.0447 22.66 33.2981 22.5667 33.4314 22.38C33.5647 22.18 33.6314 21.8267 33.6314 21.32V17.14ZM45.2297 25.64C44.483 25.64 43.7897 25.5467 43.1497 25.36C42.5097 25.1733 41.9697 24.8467 41.5297 24.38C41.383 24.6467 41.203 24.86 40.9897 25.02C40.7764 25.1667 40.5497 25.28 40.3097 25.36C40.0697 25.4267 39.8297 25.4667 39.5897 25.48C39.3497 25.4933 39.1297 25.5 38.9297 25.5C38.663 25.5 38.463 25.4 38.3297 25.2C38.1964 25 38.1297 24.64 38.1297 24.12C38.1297 23.6133 38.1897 23.2467 38.3097 23.02C38.4297 22.78 38.6364 22.66 38.9297 22.66H39.2897C39.5164 22.66 39.7097 22.6 39.8697 22.48C40.0297 22.36 40.1564 22.2067 40.2497 22.02C40.3564 21.8333 40.4297 21.62 40.4697 21.38C40.523 21.1267 40.5497 20.88 40.5497 20.64C40.5497 19.8667 40.683 19.2267 40.9497 18.72C41.2164 18.2 41.563 17.7867 41.9897 17.48C42.4297 17.16 42.9164 16.94 43.4497 16.82C43.983 16.6867 44.5164 16.62 45.0497 16.62C45.7564 16.62 46.4097 16.7067 47.0097 16.88C47.6097 17.04 48.123 17.3067 48.5497 17.68C48.9897 18.0533 49.3297 18.5333 49.5697 19.12C49.823 19.6933 49.9497 20.4 49.9497 21.24C49.9497 21.6267 50.0364 21.96 50.2097 22.24C50.3964 22.52 50.723 22.66 51.1897 22.66H51.7697C52.303 22.66 52.5697 23.1333 52.5697 24.08C52.5697 24.5333 52.503 24.8867 52.3697 25.14C52.2497 25.38 52.0497 25.5 51.7697 25.5C51.2497 25.5 50.7497 25.42 50.2697 25.26C49.803 25.1 49.3964 24.76 49.0497 24.24C48.623 24.76 48.0764 25.1267 47.4097 25.34C46.743 25.54 46.0164 25.64 45.2297 25.64ZM45.2297 19.46C44.7897 19.46 44.4497 19.5933 44.2097 19.86C43.9697 20.1133 43.8497 20.5333 43.8497 21.12C43.8497 21.7733 43.9697 22.22 44.2097 22.46C44.463 22.6867 44.803 22.8 45.2297 22.8C45.6964 22.8 46.043 22.68 46.2697 22.44C46.5097 22.2 46.6297 21.76 46.6297 21.12C46.6297 20.5067 46.5097 20.08 46.2697 19.84C46.0297 19.5867 45.683 19.46 45.2297 19.46ZM51.7617 25.5C51.4951 25.5 51.2951 25.3933 51.1617 25.18C51.0284 24.9667 50.9617 24.6067 50.9617 24.1C50.9617 23.58 51.0284 23.2133 51.1617 23C51.2817 22.7733 51.4817 22.66 51.7617 22.66H52.2017C52.5351 22.66 52.7751 22.5867 52.9217 22.44C53.0817 22.28 53.1617 22 53.1617 21.6V12.1C53.1617 11.9667 53.2284 11.9 53.3617 11.9H56.3617C56.4951 11.9 56.5617 11.9667 56.5617 12.1V22.98C56.5617 23.8467 56.3817 24.4867 56.0217 24.9C55.6617 25.3 55.0617 25.5 54.2217 25.5H51.7617ZM62.1602 25.3C62.1602 25.4333 62.0935 25.5 61.9602 25.5H58.9602C58.8268 25.5 58.7602 25.4333 58.7602 25.3V12.1C58.7602 11.9667 58.8268 11.9 58.9602 11.9H61.9602C62.0935 11.9 62.1602 11.9667 62.1602 12.1V25.3ZM76.0113 12.12C76.0113 11.9867 76.0779 11.92 76.2113 11.92H79.2113C79.3446 11.92 79.4113 11.9867 79.4113 12.12V21.7C79.4513 21.98 79.5846 22.2133 79.8113 22.4C80.0379 22.5733 80.3646 22.66 80.7913 22.66H81.3513C81.8846 22.66 82.1513 23.1333 82.1513 24.08C82.1513 24.5333 82.0846 24.8867 81.9513 25.14C81.8313 25.38 81.6313 25.5 81.3513 25.5C80.9513 25.5 80.5913 25.4667 80.2713 25.4C79.9513 25.32 79.6646 25.1467 79.4113 24.88V25.04C79.4113 25.9467 79.2646 26.7133 78.9713 27.34C78.6913 27.9667 78.3046 28.4733 77.8113 28.86C77.3313 29.2467 76.7713 29.52 76.1313 29.68C75.5046 29.8533 74.8446 29.94 74.1513 29.94C73.4713 29.94 72.8113 29.8533 72.1713 29.68C71.5313 29.5067 70.9646 29.22 70.4713 28.82C69.9913 28.4333 69.5979 27.92 69.2913 27.28C68.9979 26.6533 68.8513 25.88 68.8513 24.96C68.8513 24.36 68.9313 23.7133 69.0913 23.02C69.2513 22.3267 69.4979 21.6867 69.8313 21.1C69.8846 21.0067 69.9913 20.98 70.1513 21.02L72.8313 21.74C72.9113 21.7667 72.9579 21.8067 72.9713 21.86C72.9846 21.9133 72.9779 21.9667 72.9513 22.02C72.7779 22.3933 72.6246 22.7933 72.4913 23.22C72.3579 23.6467 72.2913 24.1467 72.2913 24.72C72.2913 25.1467 72.3446 25.5067 72.4513 25.8C72.5579 26.0933 72.6979 26.3267 72.8713 26.5C73.0446 26.6867 73.2446 26.82 73.4713 26.9C73.7113 26.9933 73.9513 27.04 74.1913 27.04C75.4046 27.04 76.0113 26.32 76.0113 24.88V12.12ZM84.5316 14.94C84.3982 14.94 84.3316 14.8733 84.3316 14.74V12.52C84.3316 12.3867 84.3982 12.32 84.5316 12.32H87.5716C87.7049 12.32 87.7716 12.3867 87.7716 12.52V14.74C87.7716 14.8733 87.7049 14.94 87.5716 14.94H84.5316ZM81.3516 25.5C81.0849 25.5 80.8849 25.4 80.7516 25.2C80.6182 25 80.5516 24.64 80.5516 24.12C80.5516 23.1467 80.8182 22.66 81.3516 22.66H85.9516C86.5382 22.66 86.9316 22.5667 87.1316 22.38C87.3449 22.1933 87.4516 21.8533 87.4516 21.36C87.4516 21.12 87.4182 20.8867 87.3516 20.66C87.2982 20.4333 87.2049 20.2333 87.0716 20.06C86.9382 19.8733 86.7582 19.7267 86.5316 19.62C86.3182 19.5133 86.0516 19.46 85.7316 19.46C85.3182 19.46 84.9582 19.54 84.6516 19.7C84.3449 19.86 84.0582 20.0467 83.7916 20.26C83.6849 20.34 83.5916 20.3467 83.5116 20.28L82.1516 18.52C82.1116 18.4667 82.0782 18.4133 82.0516 18.36C82.0382 18.3067 82.0582 18.2533 82.1116 18.2C82.6182 17.7467 83.1782 17.3733 83.7916 17.08C84.4182 16.7733 85.1649 16.62 86.0316 16.62C86.8849 16.62 87.6182 16.74 88.2316 16.98C88.8582 17.22 89.3716 17.56 89.7716 18C90.1716 18.4267 90.4649 18.9467 90.6516 19.56C90.8516 20.16 90.9516 20.82 90.9516 21.54C90.9516 22.3667 90.8649 23.04 90.6916 23.56C90.5182 24.08 90.2716 24.4867 89.9516 24.78C89.6449 25.06 89.2649 25.2533 88.8116 25.36C88.3716 25.4533 87.8716 25.5 87.3116 25.5H81.3516ZM93.5598 19.46C93.4265 19.46 93.3598 19.3933 93.3598 19.26V16.82C93.3598 16.6867 93.4265 16.62 93.5598 16.62H97.2998C98.4998 16.62 99.3998 16.9133 99.9998 17.5C100.6 18.0867 100.9 19 100.9 20.24V21.54C100.927 21.6467 100.96 21.7667 101 21.9C101.053 22.0333 101.127 22.16 101.22 22.28C101.313 22.3867 101.44 22.48 101.6 22.56C101.773 22.6267 101.993 22.66 102.26 22.66H102.84C103.373 22.66 103.64 23.1333 103.64 24.08C103.64 24.5333 103.573 24.8867 103.44 25.14C103.32 25.38 103.12 25.5 102.84 25.5C102.28 25.5 101.8 25.4267 101.4 25.28C101.013 25.1333 100.68 24.8333 100.4 24.38C100.147 24.7933 99.7998 25.0867 99.3598 25.26C98.9332 25.42 98.4132 25.5 97.7998 25.5H92.7798C92.6465 25.5 92.5798 25.4333 92.5798 25.3V22.86C92.5798 22.7267 92.6465 22.66 92.7798 22.66H95.9998C96.3198 22.66 96.5732 22.64 96.7598 22.6C96.9465 22.5467 97.0865 22.4667 97.1798 22.36C97.2732 22.2533 97.3332 22.12 97.3598 21.96C97.3865 21.8 97.3998 21.6067 97.3998 21.38V20.7C97.3998 20.2333 97.2665 19.9133 96.9998 19.74C96.7465 19.5533 96.3598 19.46 95.8398 19.46H93.5598ZM103.856 14.92C103.723 14.92 103.656 14.8533 103.656 14.72V12.5C103.656 12.3667 103.723 12.3 103.856 12.3H106.196C106.329 12.3 106.396 12.3667 106.396 12.5V14.72C106.396 14.8533 106.329 14.92 106.196 14.92H103.856ZM107.156 14.92C107.023 14.92 106.956 14.8533 106.956 14.72V12.5C106.956 12.3667 107.023 12.3 107.156 12.3H109.496C109.629 12.3 109.696 12.3667 109.696 12.5V14.72C109.696 14.8533 109.629 14.92 109.496 14.92H107.156ZM104.976 17.14C104.976 17.0067 105.043 16.94 105.176 16.94H108.196C108.329 16.94 108.396 17.0067 108.396 17.14V21.7C108.396 21.98 108.516 22.2133 108.756 22.4C109.009 22.5733 109.349 22.66 109.776 22.66H110.356C110.889 22.66 111.156 23.1333 111.156 24.08C111.156 24.5333 111.089 24.8867 110.956 25.14C110.836 25.38 110.636 25.5 110.356 25.5C109.849 25.5 109.416 25.44 109.056 25.32C108.696 25.1867 108.383 24.9133 108.116 24.5C107.996 24.7267 107.849 24.9067 107.676 25.04C107.503 25.1733 107.296 25.2733 107.056 25.34C106.816 25.4067 106.536 25.4533 106.216 25.48C105.896 25.4933 105.536 25.5 105.136 25.5H102.876C102.609 25.5 102.409 25.4 102.276 25.2C102.143 25 102.076 24.62 102.076 24.06C102.076 23.5533 102.143 23.1933 102.276 22.98C102.396 22.7667 102.596 22.66 102.876 22.66H104.016C104.403 22.66 104.656 22.56 104.776 22.36C104.909 22.16 104.976 21.8067 104.976 21.3V17.14ZM110.355 25.5C110.089 25.5 109.889 25.3933 109.755 25.18C109.622 24.9667 109.555 24.6067 109.555 24.1C109.555 23.58 109.622 23.2133 109.755 23C109.875 22.7733 110.075 22.66 110.355 22.66H110.795C111.129 22.66 111.369 22.5867 111.515 22.44C111.675 22.28 111.755 22 111.755 21.6V12.1C111.755 11.9667 111.822 11.9 111.955 11.9H114.955C115.089 11.9 115.155 11.9667 115.155 12.1V22.98C115.155 23.8467 114.975 24.4867 114.615 24.9C114.255 25.3 113.655 25.5 112.815 25.5H110.355ZM120.754 25.3C120.754 25.4333 120.687 25.5 120.554 25.5H117.554C117.421 25.5 117.354 25.4333 117.354 25.3V12.1C117.354 11.9667 117.421 11.9 117.554 11.9H120.554C120.687 11.9 120.754 11.9667 120.754 12.1V25.3ZM128.985 14.92C128.852 14.92 128.785 14.8533 128.785 14.72V12.5C128.785 12.3667 128.852 12.3 128.985 12.3H132.025C132.158 12.3 132.225 12.3667 132.225 12.5V14.72C132.225 14.8533 132.158 14.92 132.025 14.92H128.985ZM128.805 17.14C128.805 17.0067 128.872 16.94 129.005 16.94H132.005C132.138 16.94 132.205 17.0067 132.205 17.14V21.7C132.205 21.98 132.325 22.2133 132.565 22.4C132.805 22.5733 133.145 22.66 133.585 22.66H134.145C134.678 22.66 134.945 23.1333 134.945 24.08C134.945 24.5333 134.878 24.8867 134.745 25.14C134.625 25.38 134.425 25.5 134.145 25.5C133.692 25.5 133.312 25.4533 133.005 25.36C132.698 25.2533 132.432 25.0667 132.205 24.8V25.06C132.205 26.6467 131.872 27.8067 131.205 28.54C130.552 29.2733 129.485 29.64 128.005 29.64H126.905C126.772 29.64 126.705 29.5733 126.705 29.44V27C126.705 26.8667 126.772 26.8 126.905 26.8H127.305C127.945 26.8 128.352 26.62 128.525 26.26C128.712 25.9 128.805 25.3667 128.805 24.66V17.14ZM139.385 16.7C140.051 16.7267 140.618 16.8267 141.085 17C141.565 17.16 141.951 17.4133 142.245 17.76C142.551 18.0933 142.771 18.52 142.905 19.04C143.051 19.5467 143.125 20.1667 143.125 20.9V22.08C143.125 22.72 143.058 23.26 142.925 23.7C142.791 24.14 142.591 24.4933 142.325 24.76C142.071 25.0267 141.751 25.22 141.365 25.34C140.978 25.4467 140.531 25.5 140.025 25.5H134.145C133.878 25.5 133.678 25.3933 133.545 25.18C133.411 24.9667 133.345 24.5667 133.345 23.98C133.345 23.46 133.411 23.1133 133.545 22.94C133.665 22.7533 133.865 22.66 134.145 22.66H138.225C138.518 22.66 138.758 22.6467 138.945 22.62C139.131 22.58 139.271 22.52 139.365 22.44C139.471 22.36 139.538 22.2467 139.565 22.1C139.605 21.9533 139.625 21.7667 139.625 21.54V20.78C139.625 20.3133 139.505 19.9867 139.265 19.8C139.025 19.6133 138.625 19.52 138.065 19.52H135.165C135.031 19.52 134.965 19.4533 134.965 19.32V17.42C134.965 17.3133 135.031 17.1867 135.165 17.04C135.311 16.88 135.438 16.7467 135.545 16.64L139.725 11.7C139.818 11.58 139.905 11.56 139.985 11.64L141.985 13.32C142.105 13.4267 142.131 13.52 142.065 13.6L139.385 16.7ZM146.266 17.14C146.266 17.0067 146.333 16.94 146.466 16.94H149.466C149.599 16.94 149.666 17.0067 149.666 17.14V21.7C149.666 21.98 149.786 22.2133 150.026 22.4C150.266 22.5733 150.606 22.66 151.046 22.66H151.606C152.139 22.66 152.406 23.1333 152.406 24.08C152.406 24.5333 152.339 24.8867 152.206 25.14C152.086 25.38 151.886 25.5 151.606 25.5C151.153 25.5 150.773 25.4533 150.466 25.36C150.159 25.2533 149.893 25.0667 149.666 24.8V25.06C149.666 26.6467 149.333 27.8067 148.666 28.54C148.013 29.2733 146.946 29.64 145.466 29.64H144.366C144.233 29.64 144.166 29.5733 144.166 29.44V27C144.166 26.8667 144.233 26.8 144.366 26.8H144.766C145.406 26.8 145.813 26.62 145.986 26.26C146.173 25.9 146.266 25.3667 146.266 24.66V17.14ZM157.905 25.64C157.159 25.64 156.465 25.5467 155.825 25.36C155.185 25.1733 154.645 24.8467 154.205 24.38C154.059 24.6467 153.879 24.86 153.665 25.02C153.452 25.1667 153.225 25.28 152.985 25.36C152.745 25.4267 152.505 25.4667 152.265 25.48C152.025 25.4933 151.805 25.5 151.605 25.5C151.339 25.5 151.139 25.4 151.005 25.2C150.872 25 150.805 24.64 150.805 24.12C150.805 23.5867 150.872 23.2133 151.005 23C151.125 22.7733 151.325 22.66 151.605 22.66H151.965C152.192 22.66 152.385 22.6 152.545 22.48C152.705 22.36 152.832 22.2067 152.925 22.02C153.032 21.8333 153.105 21.62 153.145 21.38C153.199 21.1267 153.225 20.88 153.225 20.64C153.225 19.84 153.365 19.1867 153.645 18.68C153.925 18.16 154.285 17.7467 154.725 17.44C155.165 17.1333 155.665 16.92 156.225 16.8C156.785 16.68 157.345 16.62 157.905 16.62C158.492 16.62 159.065 16.6867 159.625 16.82C160.199 16.9533 160.705 17.1933 161.145 17.54C161.585 17.8867 161.939 18.36 162.205 18.96C162.485 19.56 162.625 20.32 162.625 21.24C162.625 22.08 162.499 22.7867 162.245 23.36C162.005 23.92 161.665 24.3733 161.225 24.72C160.799 25.0533 160.299 25.2933 159.725 25.44C159.152 25.5733 158.545 25.64 157.905 25.64ZM157.905 19.46C157.465 19.46 157.119 19.5933 156.865 19.86C156.625 20.1133 156.505 20.5333 156.505 21.12C156.505 21.7733 156.632 22.22 156.885 22.46C157.139 22.6867 157.479 22.8 157.905 22.8C158.372 22.8 158.719 22.68 158.945 22.44C159.185 22.2 159.305 21.76 159.305 21.12C159.305 20.5067 159.185 20.08 158.945 19.84C158.705 19.5867 158.359 19.46 157.905 19.46Z" fill="#835EAB"/>
<path d="M14.2706 53.383C14.1573 53.383 14.1006 53.3263 14.1006 53.213V52.227C14.1006 52.1137 14.1573 52.057 14.2706 52.057H16.3106C16.5373 52.057 16.747 52.0287 16.9396 51.972C17.1323 51.9267 17.2966 51.8417 17.4326 51.717C17.58 51.6037 17.6933 51.4393 17.7726 51.224C17.852 51.02 17.8916 50.7593 17.8916 50.442V50H16.0726C15.574 50 15.1206 49.9433 14.7126 49.83C14.316 49.7053 13.976 49.5127 13.6926 49.252C13.4093 48.98 13.194 48.623 13.0466 48.181C12.8993 47.739 12.8256 47.195 12.8256 46.549C12.8256 45.903 12.9106 45.342 13.0806 44.866C13.262 44.3787 13.5 43.982 13.7946 43.676C14.1006 43.3587 14.452 43.1263 14.8486 42.979C15.2453 42.8203 15.6646 42.741 16.1066 42.741C17.1153 42.741 17.903 43.0357 18.4696 43.625C19.0363 44.203 19.3196 45.1437 19.3196 46.447V48.674H20.4926C20.7193 48.674 20.8893 48.725 21.0026 48.827C21.116 48.9177 21.1726 49.0763 21.1726 49.303C21.1726 49.5977 21.116 49.7903 21.0026 49.881C20.9006 49.9603 20.7306 50 20.4926 50H19.3196V50.408C19.3196 50.9407 19.246 51.394 19.0986 51.768C18.9626 52.142 18.7643 52.448 18.5036 52.686C18.2543 52.924 17.9483 53.0997 17.5856 53.213C17.223 53.3263 16.8206 53.383 16.3786 53.383H14.2706ZM16.1066 44.067C15.54 44.067 15.0866 44.2937 14.7466 44.747C14.418 45.2003 14.2536 45.801 14.2536 46.549C14.2536 47.3537 14.4123 47.909 14.7296 48.215C15.0583 48.521 15.54 48.674 16.1746 48.674H17.8916V46.447C17.8916 45.699 17.75 45.1153 17.4666 44.696C17.1946 44.2767 16.7413 44.067 16.1066 44.067ZM25.6408 50.119C25.1082 50.119 24.6378 50.0453 24.2298 49.898C23.8218 49.7393 23.4762 49.4957 23.1928 49.167C22.9548 49.5297 22.6488 49.762 22.2748 49.864C21.9008 49.9547 21.5552 50 21.2378 50H20.5068C20.0535 50 19.8268 49.7733 19.8268 49.32C19.8268 49.0367 19.8835 48.861 19.9968 48.793C20.0988 48.7137 20.2688 48.674 20.5068 48.674H21.3568C21.4815 48.674 21.6062 48.6513 21.7308 48.606C21.8555 48.5493 21.9688 48.4643 22.0708 48.351C22.1728 48.2263 22.2522 48.0677 22.3088 47.875C22.3768 47.671 22.4108 47.4217 22.4108 47.127C22.3995 47.0137 22.3938 46.906 22.3938 46.804C22.3938 46.6907 22.3938 46.5717 22.3938 46.447C22.3938 45.1437 22.6828 44.203 23.2608 43.625C23.8388 43.0357 24.6322 42.741 25.6408 42.741C26.6495 42.741 27.4428 43.0357 28.0208 43.625C28.5988 44.203 28.8878 45.1437 28.8878 46.447C28.8878 46.5717 28.8822 46.6963 28.8708 46.821C28.8708 46.9457 28.8652 47.0647 28.8538 47.178C28.8652 47.756 28.9785 48.1527 29.1938 48.368C29.4205 48.572 29.6585 48.674 29.9078 48.674H30.4008C30.6275 48.674 30.7975 48.725 30.9108 48.827C31.0242 48.9177 31.0808 49.0763 31.0808 49.303C31.0808 49.5977 31.0242 49.7903 30.9108 49.881C30.8088 49.9603 30.6388 50 30.4008 50H30.0268C29.8682 50 29.6982 49.9943 29.5168 49.983C29.3355 49.9603 29.1542 49.9207 28.9728 49.864C28.8028 49.8073 28.6385 49.728 28.4798 49.626C28.3212 49.5127 28.1852 49.3653 28.0718 49.184C27.7885 49.5127 27.4428 49.7507 27.0348 49.898C26.6268 50.0453 26.1622 50.119 25.6408 50.119ZM25.6408 44.067C25.0062 44.067 24.5415 44.2767 24.2468 44.696C23.9635 45.1153 23.8218 45.699 23.8218 46.447C23.8218 47.263 23.9635 47.858 24.2468 48.232C24.5415 48.606 25.0062 48.793 25.6408 48.793C26.2755 48.793 26.7345 48.606 27.0178 48.232C27.3125 47.858 27.4598 47.263 27.4598 46.447C27.4598 45.699 27.3125 45.1153 27.0178 44.696C26.7345 44.2767 26.2755 44.067 25.6408 44.067ZM30.5038 50C30.2771 50 30.1071 49.9603 29.9938 49.881C29.8804 49.8017 29.8238 49.643 29.8238 49.405C29.8238 49.1217 29.8804 48.929 29.9938 48.827C30.0958 48.725 30.2658 48.674 30.5038 48.674H31.5748C31.8581 48.674 32.0621 48.6117 32.1868 48.487C32.3228 48.351 32.3908 48.113 32.3908 47.773V43.217C32.3908 43.1037 32.4474 43.047 32.5608 43.047H33.6488C33.7621 43.047 33.8188 43.1037 33.8188 43.217V47.518C33.8188 47.9033 33.9548 48.1923 34.2268 48.385C34.5101 48.5777 34.8841 48.674 35.3488 48.674H35.5528C35.7794 48.674 35.9494 48.725 36.0628 48.827C36.1761 48.9177 36.2328 49.0763 36.2328 49.303C36.2328 49.5977 36.1761 49.7903 36.0628 49.881C35.9608 49.9603 35.7908 50 35.5528 50H35.1788C34.8161 50 34.4988 49.9263 34.2268 49.779C33.9548 49.6317 33.7451 49.4107 33.5978 49.116C33.3144 49.7053 32.7251 50 31.8298 50H30.5038ZM32.5268 41.364C32.4134 41.364 32.3568 41.3073 32.3568 41.194V39.953C32.3568 39.8397 32.4134 39.783 32.5268 39.783H33.6828C33.7961 39.783 33.8528 39.8397 33.8528 39.953V41.194C33.8528 41.3073 33.7961 41.364 33.6828 41.364H32.5268ZM35.415 50C35.1884 50 35.0184 49.9603 34.905 49.881C34.7917 49.8017 34.735 49.643 34.735 49.405C34.735 49.1217 34.7917 48.929 34.905 48.827C35.007 48.725 35.177 48.674 35.415 48.674H36.486C36.7694 48.674 36.9734 48.6117 37.098 48.487C37.234 48.351 37.302 48.113 37.302 47.773V38.61C37.302 38.4967 37.3587 38.44 37.472 38.44H38.56C38.6734 38.44 38.73 38.4967 38.73 38.61V47.858C38.73 48.5947 38.577 49.1387 38.271 49.49C37.965 49.83 37.455 50 36.741 50H35.415ZM42.5321 49.83C42.5321 49.9433 42.4754 50 42.3621 50H41.2741C41.1607 50 41.1041 49.9433 41.1041 49.83V38.61C41.1041 38.4967 41.1607 38.44 41.2741 38.44H42.3621C42.4754 38.44 42.5321 38.4967 42.5321 38.61V49.83ZM58.5268 48.674C58.8215 48.674 59.0311 48.6117 59.1558 48.487C59.2918 48.351 59.3598 48.113 59.3598 47.773V43.217C59.3598 43.1037 59.4165 43.047 59.5298 43.047H60.6178C60.7311 43.047 60.7878 43.1037 60.7878 43.217V47.858C60.7878 48.5947 60.6348 49.1387 60.3288 49.49C60.0228 49.83 59.5015 50 58.7648 50H50.5878C49.8738 50 49.3638 49.83 49.0578 49.49C48.7518 49.1387 48.5988 48.5947 48.5988 47.858V44.305C48.5988 44.1917 48.6555 44.135 48.7688 44.135H49.8568C49.9701 44.135 50.0268 44.1917 50.0268 44.305V47.773C50.0268 48.113 50.0891 48.351 50.2138 48.487C50.3498 48.6117 50.5595 48.674 50.8428 48.674H58.5268ZM55.1778 42.367C55.0645 42.367 55.0078 42.3103 55.0078 42.197V40.956C55.0078 40.8427 55.0645 40.786 55.1778 40.786H56.3338C56.4471 40.786 56.5038 40.8427 56.5038 40.956V42.197C56.5038 42.3103 56.4471 42.367 56.3338 42.367H55.1778ZM53.1038 42.367C52.9905 42.367 52.9338 42.3103 52.9338 42.197V40.956C52.9338 40.8427 52.9905 40.786 53.1038 40.786H54.2598C54.3731 40.786 54.4298 40.8427 54.4298 40.956V42.197C54.4298 42.3103 54.3731 42.367 54.2598 42.367H53.1038ZM62.9517 38.61C62.9517 38.4967 63.0084 38.44 63.1217 38.44H64.2097C64.3231 38.44 64.3797 38.4967 64.3797 38.61V47.773C64.3797 48.113 64.4421 48.351 64.5667 48.487C64.7027 48.6117 64.9124 48.674 65.1957 48.674H65.9437C66.3971 48.674 66.6237 48.9007 66.6237 49.354C66.6237 49.6373 66.5671 49.8187 66.4537 49.898C66.3517 49.966 66.1817 50 65.9437 50H64.9407C64.2267 50 63.7167 49.83 63.4107 49.49C63.1047 49.1387 62.9517 48.5947 62.9517 47.858V38.61ZM65.9453 50C65.7186 50 65.5486 49.9603 65.4353 49.881C65.322 49.8017 65.2653 49.643 65.2653 49.405C65.2653 49.1217 65.322 48.929 65.4353 48.827C65.5373 48.725 65.7073 48.674 65.9453 48.674H67.0163C67.2996 48.674 67.5036 48.6117 67.6283 48.487C67.7643 48.351 67.8323 48.113 67.8323 47.773V43.217C67.8323 43.1037 67.889 43.047 68.0023 43.047H69.0903C69.2036 43.047 69.2603 43.1037 69.2603 43.217V47.858C69.2603 48.5947 69.1073 49.1387 68.8013 49.49C68.4953 49.83 67.9853 50 67.2713 50H65.9453ZM67.5773 53.111C67.464 53.111 67.4073 53.0543 67.4073 52.941V51.7C67.4073 51.5867 67.464 51.53 67.5773 51.53H68.7333C68.8466 51.53 68.9033 51.5867 68.9033 51.7V52.941C68.9033 53.0543 68.8466 53.111 68.7333 53.111H67.5773ZM70.6143 53.383C70.501 53.383 70.4443 53.3263 70.4443 53.213V52.227C70.4443 52.1137 70.501 52.057 70.6143 52.057H71.0053C71.9233 52.057 72.3823 51.5753 72.3823 50.612V43.217C72.3823 43.1037 72.439 43.047 72.5523 43.047H73.6403C73.7537 43.047 73.8103 43.1037 73.8103 43.217V47.518C73.8103 47.9033 73.9463 48.1923 74.2183 48.385C74.5017 48.5777 74.8757 48.674 75.3403 48.674H75.5273C75.754 48.674 75.924 48.725 76.0373 48.827C76.1507 48.9177 76.2073 49.0763 76.2073 49.303C76.2073 49.5977 76.1507 49.7903 76.0373 49.881C75.9353 49.9603 75.7653 50 75.5273 50H75.1703C74.581 50 74.1277 49.8187 73.8103 49.456V50.578C73.8103 51.496 73.578 52.193 73.1133 52.669C72.6487 53.145 71.9687 53.383 71.0733 53.383H70.6143ZM75.5244 50C75.2977 50 75.1277 49.9603 75.0144 49.881C74.9011 49.8017 74.8444 49.643 74.8444 49.405C74.8444 49.1217 74.9011 48.929 75.0144 48.827C75.1164 48.725 75.2864 48.674 75.5244 48.674H76.5954C76.8787 48.674 77.0827 48.6117 77.2074 48.487C77.3434 48.351 77.4114 48.113 77.4114 47.773V38.61C77.4114 38.4967 77.4681 38.44 77.5814 38.44H78.6694C78.7827 38.44 78.8394 38.4967 78.8394 38.61V43.795C79.3947 43.5003 80.0124 43.251 80.6924 43.047C81.3724 42.843 82.0694 42.741 82.7834 42.741C83.5767 42.741 84.2341 42.8487 84.7554 43.064C85.2767 43.2793 85.6904 43.574 85.9964 43.948C86.3137 44.3107 86.5347 44.7357 86.6594 45.223C86.7841 45.7103 86.8464 46.226 86.8464 46.77C86.8464 46.9173 86.8407 47.059 86.8294 47.195C86.8294 47.3197 86.8294 47.4273 86.8294 47.518C86.8294 47.9033 86.9654 48.1923 87.2374 48.385C87.5207 48.5777 87.8947 48.674 88.3594 48.674H88.5464C88.7731 48.674 88.9431 48.725 89.0564 48.827C89.1697 48.9177 89.2264 49.0763 89.2264 49.303C89.2264 49.5977 89.1697 49.7903 89.0564 49.881C88.9544 49.9603 88.7844 50 88.5464 50H88.1894C87.7927 50 87.4357 49.9093 87.1184 49.728C86.8124 49.5467 86.5971 49.286 86.4724 48.946C86.2797 49.3313 86.0021 49.6033 85.6394 49.762C85.2881 49.9207 84.8347 50 84.2794 50H78.5674C78.2954 50 78.1027 49.9263 77.9894 49.779C77.7061 49.9263 77.3264 50 76.8504 50H75.5244ZM82.6814 44.067C82.3414 44.067 81.9957 44.101 81.6444 44.169C81.2931 44.2257 80.9474 44.305 80.6074 44.407C80.2787 44.509 79.9614 44.6223 79.6554 44.747C79.3607 44.8717 79.0887 44.9963 78.8394 45.121V47.858C78.8394 48.1413 78.8111 48.4133 78.7544 48.674H83.7864C84.1037 48.674 84.3644 48.6457 84.5684 48.589C84.7724 48.5323 84.9311 48.436 85.0444 48.3C85.1577 48.1527 85.2314 47.9543 85.2654 47.705C85.3107 47.4443 85.3334 47.1157 85.3334 46.719C85.3334 46.2997 85.2881 45.9257 85.1974 45.597C85.1181 45.2683 84.9764 44.9907 84.7724 44.764C84.5684 44.5373 84.2964 44.3673 83.9564 44.254C83.6164 44.1293 83.1914 44.067 82.6814 44.067ZM88.54 50C88.3134 50 88.1434 49.9603 88.03 49.881C87.9167 49.8017 87.86 49.643 87.86 49.405C87.86 49.1217 87.9167 48.929 88.03 48.827C88.132 48.725 88.302 48.674 88.54 48.674H89.611C89.8944 48.674 90.0984 48.6117 90.223 48.487C90.359 48.351 90.427 48.113 90.427 47.773V43.217C90.427 43.1037 90.4837 43.047 90.597 43.047H91.685C91.7984 43.047 91.855 43.1037 91.855 43.217V43.795C92.4104 43.5003 93.028 43.251 93.708 43.047C94.388 42.843 95.085 42.741 95.799 42.741C96.5924 42.741 97.2497 42.8487 97.771 43.064C98.2924 43.2793 98.706 43.574 99.012 43.948C99.3294 44.3107 99.5504 44.7357 99.675 45.223C99.7997 45.7103 99.862 46.226 99.862 46.77C99.862 47.3707 99.811 47.8807 99.709 48.3C99.6184 48.708 99.471 49.0423 99.267 49.303C99.063 49.5523 98.7967 49.7337 98.468 49.847C98.1394 49.949 97.7484 50 97.295 50H91.583C91.311 50 91.1184 49.9263 91.005 49.779C90.7217 49.9263 90.342 50 89.866 50H88.54ZM95.697 44.067C95.357 44.067 95.0114 44.101 94.66 44.169C94.3087 44.2257 93.963 44.305 93.623 44.407C93.2944 44.509 92.977 44.6223 92.671 44.747C92.3764 44.8717 92.1044 44.9963 91.855 45.121V47.858C91.855 48.1413 91.8267 48.4133 91.77 48.674H96.802C97.1194 48.674 97.38 48.6457 97.584 48.589C97.788 48.5323 97.9467 48.436 98.06 48.3C98.1734 48.1527 98.247 47.9543 98.281 47.705C98.3264 47.4443 98.349 47.1157 98.349 46.719C98.349 46.2997 98.3037 45.9257 98.213 45.597C98.1337 45.2683 97.992 44.9907 97.788 44.764C97.584 44.5373 97.312 44.3673 96.972 44.254C96.632 44.1293 96.207 44.067 95.697 44.067ZM95.204 41.364C95.0907 41.364 95.034 41.3073 95.034 41.194V39.953C95.034 39.8397 95.0907 39.783 95.204 39.783H96.36C96.4734 39.783 96.53 39.8397 96.53 39.953V41.194C96.53 41.3073 96.4734 41.364 96.36 41.364H95.204ZM103.41 49.83C103.41 49.9433 103.353 50 103.24 50H102.152C102.039 50 101.982 49.9433 101.982 49.83V38.61C101.982 38.4967 102.039 38.44 102.152 38.44H103.24C103.353 38.44 103.41 38.4967 103.41 38.61V49.83ZM111.058 53.383C110.944 53.383 110.888 53.3263 110.888 53.213V52.227C110.888 52.1137 110.944 52.057 111.058 52.057H113.098C113.324 52.057 113.534 52.0287 113.727 51.972C113.919 51.9267 114.084 51.8417 114.22 51.717C114.367 51.6037 114.48 51.4393 114.56 51.224C114.639 51.02 114.679 50.7593 114.679 50.442V50H112.86C112.361 50 111.908 49.9433 111.5 49.83C111.103 49.7053 110.763 49.5127 110.48 49.252C110.196 48.98 109.981 48.623 109.834 48.181C109.686 47.739 109.613 47.195 109.613 46.549C109.613 45.903 109.698 45.342 109.868 44.866C110.038 44.3787 110.27 43.982 110.565 43.676C110.871 43.3587 111.222 43.1263 111.619 42.979C112.015 42.8203 112.44 42.741 112.894 42.741C113.902 42.741 114.69 43.0357 115.257 43.625C115.823 44.203 116.107 45.1437 116.107 46.447V50.408C116.107 50.9407 116.033 51.394 115.886 51.768C115.75 52.142 115.551 52.448 115.291 52.686C115.041 52.924 114.735 53.0997 114.373 53.213C114.01 53.3263 113.608 53.383 113.166 53.383H111.058ZM112.894 44.067C112.316 44.067 111.862 44.2937 111.534 44.747C111.205 45.2003 111.041 45.801 111.041 46.549C111.041 47.3537 111.199 47.909 111.517 48.215C111.845 48.521 112.327 48.674 112.962 48.674H114.679V46.447C114.679 45.699 114.537 45.1153 114.254 44.696C113.982 44.2767 113.528 44.067 112.894 44.067ZM128.656 47.518C128.656 47.9033 128.792 48.1923 129.064 48.385C129.347 48.5777 129.721 48.674 130.186 48.674H130.373C130.6 48.674 130.77 48.725 130.883 48.827C130.996 48.9177 131.053 49.0763 131.053 49.303C131.053 49.5977 130.996 49.7903 130.883 49.881C130.781 49.9603 130.611 50 130.373 50H130.016C129.631 50 129.285 49.9207 128.979 49.762C128.673 49.592 128.458 49.3427 128.333 49.014C128.14 49.388 127.874 49.6487 127.534 49.796C127.194 49.932 126.752 50 126.208 50H122.434C122.321 50 122.264 49.9433 122.264 49.83V48.844C122.264 48.7307 122.321 48.674 122.434 48.674H125.681C125.998 48.674 126.253 48.6513 126.446 48.606C126.639 48.5493 126.786 48.4643 126.888 48.351C126.99 48.2263 127.058 48.0677 127.092 47.875C127.126 47.6823 127.143 47.4387 127.143 47.144V45.784C127.143 44.6393 126.497 44.067 125.205 44.067H123.233C123.12 44.067 123.063 44.0103 123.063 43.897V42.911C123.063 42.7977 123.12 42.741 123.233 42.741H125.732C126.593 42.741 127.296 42.9847 127.84 43.472C128.384 43.9593 128.656 44.7243 128.656 45.767V47.518ZM134.354 44.067C133.969 44.067 133.612 44.1463 133.283 44.305C132.966 44.4637 132.682 44.679 132.433 44.951C132.365 45.0303 132.286 45.036 132.195 44.968L131.447 44.356C131.345 44.2767 131.328 44.1973 131.396 44.118C131.713 43.7213 132.104 43.3927 132.569 43.132C133.045 42.8713 133.623 42.741 134.303 42.741C135.085 42.741 135.725 42.8657 136.224 43.115C136.723 43.353 137.114 43.6703 137.397 44.067C137.692 44.4637 137.896 44.9227 138.009 45.444C138.122 45.9653 138.179 46.5037 138.179 47.059C138.179 47.6257 138.128 48.096 138.026 48.47C137.935 48.844 137.788 49.1443 137.584 49.371C137.391 49.5977 137.136 49.762 136.819 49.864C136.513 49.9547 136.15 50 135.731 50H130.376C129.923 50 129.696 49.7733 129.696 49.32C129.696 49.0367 129.753 48.861 129.866 48.793C129.968 48.7137 130.138 48.674 130.376 48.674H135.204C135.521 48.674 135.776 48.6513 135.969 48.606C136.162 48.5493 136.309 48.4587 136.411 48.334C136.513 48.2093 136.581 48.045 136.615 47.841C136.649 47.6257 136.666 47.365 136.666 47.059C136.666 46.617 136.626 46.2147 136.547 45.852C136.468 45.478 136.337 45.1607 136.156 44.9C135.986 44.628 135.754 44.424 135.459 44.288C135.164 44.1407 134.796 44.067 134.354 44.067ZM141.488 53.383C141.375 53.383 141.318 53.3263 141.318 53.213V52.227C141.318 52.1137 141.375 52.057 141.488 52.057H143.528C143.755 52.057 143.965 52.0287 144.157 51.972C144.35 51.9267 144.514 51.8417 144.65 51.717C144.798 51.6037 144.911 51.4393 144.99 51.224C145.07 51.02 145.109 50.7593 145.109 50.442V50H143.29C142.792 50 142.338 49.9433 141.93 49.83C141.534 49.7053 141.194 49.5127 140.91 49.252C140.627 48.98 140.412 48.623 140.264 48.181C140.117 47.739 140.043 47.195 140.043 46.549C140.043 45.903 140.128 45.342 140.298 44.866C140.48 44.3787 140.718 43.982 141.012 43.676C141.318 43.3587 141.67 43.1263 142.066 42.979C142.463 42.8203 142.882 42.741 143.324 42.741C144.333 42.741 145.121 43.0357 145.687 43.625C146.254 44.203 146.537 45.1437 146.537 46.447V48.674H147.71C147.937 48.674 148.107 48.725 148.22 48.827C148.334 48.9177 148.39 49.0763 148.39 49.303C148.39 49.5977 148.334 49.7903 148.22 49.881C148.118 49.9603 147.948 50 147.71 50H146.537V50.408C146.537 50.9407 146.464 51.394 146.316 51.768C146.18 52.142 145.982 52.448 145.721 52.686C145.472 52.924 145.166 53.0997 144.803 53.213C144.441 53.3263 144.038 53.383 143.596 53.383H141.488ZM143.324 44.067C142.758 44.067 142.304 44.2937 141.964 44.747C141.636 45.2003 141.471 45.801 141.471 46.549C141.471 47.3537 141.63 47.909 141.947 48.215C142.276 48.521 142.758 48.674 143.392 48.674H145.109V46.447C145.109 45.699 144.968 45.1153 144.684 44.696C144.412 44.2767 143.959 44.067 143.324 44.067ZM147.844 50C147.617 50 147.447 49.9603 147.334 49.881C147.22 49.8017 147.164 49.643 147.164 49.405C147.164 49.1217 147.22 48.929 147.334 48.827C147.436 48.725 147.606 48.674 147.844 48.674H149C149.283 48.674 149.487 48.6117 149.612 48.487C149.748 48.351 149.816 48.113 149.816 47.773V43.217C149.816 43.1037 149.872 43.047 149.986 43.047H151.074C151.187 43.047 151.244 43.1037 151.244 43.217V47.518C151.244 47.9033 151.38 48.1923 151.652 48.385C151.935 48.5777 152.309 48.674 152.774 48.674H152.978C153.204 48.674 153.374 48.725 153.488 48.827C153.601 48.9177 153.658 49.0763 153.658 49.303C153.658 49.5977 153.601 49.7903 153.488 49.881C153.386 49.9603 153.216 50 152.978 50H152.604C152.241 50 151.924 49.9263 151.652 49.779C151.38 49.6317 151.17 49.4107 151.023 49.116C150.739 49.7053 150.15 50 149.255 50H147.844ZM150.955 41.364C150.841 41.364 150.785 41.3073 150.785 41.194V39.953C150.785 39.8397 150.841 39.783 150.955 39.783H152.111C152.224 39.783 152.281 39.8397 152.281 39.953V41.194C152.281 41.3073 152.224 41.364 152.111 41.364H150.955ZM148.881 41.364C148.767 41.364 148.711 41.3073 148.711 41.194V39.953C148.711 39.8397 148.767 39.783 148.881 39.783H150.037C150.15 39.783 150.207 39.8397 150.207 39.953V41.194C150.207 41.3073 150.15 41.364 150.037 41.364H148.881ZM152.971 50C152.744 50 152.574 49.9603 152.461 49.881C152.347 49.8017 152.291 49.643 152.291 49.405C152.291 49.1217 152.347 48.929 152.461 48.827C152.563 48.725 152.733 48.674 152.971 48.674H154.042C154.325 48.674 154.529 48.6117 154.654 48.487C154.79 48.351 154.858 48.113 154.858 47.773V38.61C154.858 38.4967 154.914 38.44 155.028 38.44H156.116C156.229 38.44 156.286 38.4967 156.286 38.61V47.518C156.286 47.9033 156.422 48.1923 156.694 48.385C156.977 48.5777 157.351 48.674 157.816 48.674H158.02C158.246 48.674 158.416 48.725 158.53 48.827C158.643 48.9177 158.7 49.0763 158.7 49.303C158.7 49.5977 158.643 49.7903 158.53 49.881C158.428 49.9603 158.258 50 158.02 50H157.646C157.283 50 156.966 49.9263 156.694 49.779C156.422 49.6317 156.212 49.4107 156.065 49.116C155.781 49.7053 155.192 50 154.297 50H152.971ZM158.001 50C157.774 50 157.604 49.9603 157.491 49.881C157.378 49.8017 157.321 49.643 157.321 49.405C157.321 49.1217 157.378 48.929 157.491 48.827C157.593 48.725 157.763 48.674 158.001 48.674H159.072C159.355 48.674 159.559 48.6117 159.684 48.487C159.82 48.351 159.888 48.113 159.888 47.773V38.61C159.888 38.4967 159.945 38.44 160.058 38.44H161.146C161.259 38.44 161.316 38.4967 161.316 38.61V47.858C161.316 48.5947 161.163 49.1387 160.857 49.49C160.551 49.83 160.041 50 159.327 50H158.001Z" fill="#835EAB"/>
</svg>
