<svg width="24" height="24" viewBox="0 0 24 24" fill="none" xmlns="http://www.w3.org/2000/svg">
<g clip-path="url(#clip0_2_76)">
<path d="M23.9999 11.2989V12.7052C23.9634 13.0059 23.9335 13.3077 23.89 13.6078C23.4796 16.4375 22.267 18.8649 20.1513 20.7921C17.187 23.4921 13.6919 24.4827 9.74877 23.7816C7.17795 23.3247 4.98471 22.1063 3.22483 20.1773C0.516605 17.2085 -0.484594 13.7111 0.216539 9.75925C0.683373 7.1286 1.96056 4.91603 3.93419 3.11803C5.65002 1.5549 7.66064 0.573694 9.95195 0.183206C10.3971 0.107457 10.8463 0.0604815 11.2937 0C11.7623 0 12.2315 0 12.7001 0C12.7606 0.0129184 12.8205 0.0334703 12.8816 0.0381679C14.898 0.184381 16.7695 0.788021 18.4595 1.89489C21.3915 3.81503 23.183 6.50793 23.8155 9.96007C23.8965 10.4028 23.9394 10.8526 23.9999 11.2995V11.2989ZM15.1934 18.2725C15.7049 18.2719 16.1805 18.175 16.6368 17.9689C17.2228 17.7041 17.6444 17.2408 18.086 16.8004C18.3984 16.4891 18.3973 16.2302 18.0825 15.9137C17.3943 15.2214 16.7043 14.5302 16.0132 13.8409C15.6849 13.5132 15.4242 13.5173 15.0912 13.8532C14.7172 14.2302 14.3484 14.6124 13.972 14.9871C13.5246 15.4316 12.979 15.4745 12.4682 15.1104C11.1158 14.1462 9.94255 12.9988 8.95134 11.6659C8.54029 11.1127 8.57611 10.5854 9.06408 10.0928C9.45987 9.69348 9.86211 9.30006 10.2555 8.89841C10.5262 8.62184 10.528 8.35291 10.2555 8.07751C9.54149 7.35584 8.82333 6.63711 8.10164 5.92366C7.83798 5.66295 7.56786 5.66588 7.29833 5.92484C7.03937 6.17381 6.78452 6.42748 6.54259 6.6929C5.87375 7.42572 5.58191 8.28597 5.70933 9.27598C5.80681 10.0311 6.1198 10.7164 6.46919 11.377C7.92548 14.1245 10.0518 16.1967 12.8463 17.5637C13.588 17.9266 14.3643 18.222 15.194 18.2736L15.1934 18.2725Z" fill="#815FA9"/>
</g>
<defs>
<clipPath id="clip0_2_76">
<rect width="24" height="24" fill="white"/>
</clipPath>
</defs>
</svg>
