<svg width="39" height="39" viewBox="0 0 39 39" fill="none" xmlns="http://www.w3.org/2000/svg">
<circle cx="19.5" cy="19.5" r="19.5" fill="black" fill-opacity="0.2"/>
<path d="M29.5907 14.4998C28.8849 14.8207 28.1241 15.0315 27.3357 15.1323C28.1424 14.6465 28.7657 13.8765 29.0591 12.9507C28.2982 13.409 27.4549 13.7298 26.5657 13.9132C25.8416 13.1248 24.8241 12.6665 23.6691 12.6665C21.5149 12.6665 19.7549 14.4265 19.7549 16.599C19.7549 16.9107 19.7916 17.2132 19.8557 17.4973C16.5924 17.3323 13.6866 15.7648 11.7524 13.3907C11.4132 13.9682 11.2207 14.6465 11.2207 15.3615C11.2207 16.7273 11.9082 17.9373 12.9716 18.6248C12.3207 18.6248 11.7157 18.4415 11.1841 18.1665V18.194C11.1841 20.1007 12.5407 21.6957 14.3374 22.0532C13.7606 22.211 13.155 22.233 12.5682 22.1173C12.8172 22.8988 13.3048 23.5825 13.9625 24.0725C14.6202 24.5625 15.4149 24.8341 16.2349 24.849C14.8449 25.9494 13.1219 26.5442 11.3491 26.5357C11.0374 26.5357 10.7257 26.5173 10.4141 26.4807C12.1557 27.599 14.2274 28.2498 16.4457 28.2498C23.6691 28.2498 27.6382 22.2548 27.6382 17.0573C27.6382 16.8832 27.6382 16.7182 27.6291 16.544C28.3991 15.994 29.0591 15.2973 29.5907 14.4998Z" fill="#E4E4E4"/>
</svg>
