<svg width="39" height="39" viewBox="0 0 39 39" fill="none" xmlns="http://www.w3.org/2000/svg">
<circle cx="19.5" cy="19.5" r="19.5" fill="black" fill-opacity="0.2"/>
<path d="M15.1276 9.0835H23.8776C27.2109 9.0835 29.9193 11.7918 29.9193 15.1252V23.8752C29.9193 25.4775 29.2827 27.0142 28.1497 28.1473C27.0167 29.2803 25.48 29.9168 23.8776 29.9168H15.1276C11.7943 29.9168 9.08594 27.2085 9.08594 23.8752V15.1252C9.08594 13.5228 9.72247 11.9861 10.8555 10.8531C11.9885 9.72003 13.5253 9.0835 15.1276 9.0835ZM14.9193 11.1668C13.9247 11.1668 12.9709 11.5619 12.2676 12.2652C11.5644 12.9684 11.1693 13.9223 11.1693 14.9168V24.0835C11.1693 26.1564 12.8464 27.8335 14.9193 27.8335H24.0859C25.0805 27.8335 26.0343 27.4384 26.7376 26.7351C27.4409 26.0319 27.8359 25.0781 27.8359 24.0835V14.9168C27.8359 12.8439 26.1589 11.1668 24.0859 11.1668H14.9193ZM24.9714 12.7293C25.3167 12.7293 25.6479 12.8665 25.8921 13.1107C26.1363 13.3549 26.2734 13.6861 26.2734 14.0314C26.2734 14.3767 26.1363 14.7079 25.8921 14.9521C25.6479 15.1963 25.3167 15.3335 24.9714 15.3335C24.626 15.3335 24.2948 15.1963 24.0506 14.9521C23.8065 14.7079 23.6693 14.3767 23.6693 14.0314C23.6693 13.6861 23.8065 13.3549 24.0506 13.1107C24.2948 12.8665 24.626 12.7293 24.9714 12.7293ZM19.5026 14.2918C20.8839 14.2918 22.2087 14.8406 23.1855 15.8173C24.1622 16.7941 24.7109 18.1188 24.7109 19.5002C24.7109 20.8815 24.1622 22.2063 23.1855 23.183C22.2087 24.1598 20.8839 24.7085 19.5026 24.7085C18.1213 24.7085 16.7965 24.1598 15.8198 23.183C14.843 22.2063 14.2943 20.8815 14.2943 19.5002C14.2943 18.1188 14.843 16.7941 15.8198 15.8173C16.7965 14.8406 18.1213 14.2918 19.5026 14.2918ZM19.5026 16.3752C18.6738 16.3752 17.8789 16.7044 17.2929 17.2905C16.7068 17.8765 16.3776 18.6714 16.3776 19.5002C16.3776 20.329 16.7068 21.1238 17.2929 21.7099C17.8789 22.2959 18.6738 22.6252 19.5026 22.6252C20.3314 22.6252 21.1263 22.2959 21.7123 21.7099C22.2984 21.1238 22.6276 20.329 22.6276 19.5002C22.6276 18.6714 22.2984 17.8765 21.7123 17.2905C21.1263 16.7044 20.3314 16.3752 19.5026 16.3752Z" fill="#E4E4E4"/>
</svg>
