<svg width="25" height="24" viewBox="0 0 25 24" fill="none" xmlns="http://www.w3.org/2000/svg">
<path d="M12.0488 1.66362e-05C18.647 0.010257 24.062 5.43148 24.0422 12.0064C24.0224 18.6913 18.6156 24.0265 11.8884 23.9999C5.36527 23.9746 -0.0156675 18.5418 3.4277e-05 11.9969C0.0164188 5.35843 5.40897 -0.0109064 12.0488 1.66362e-05ZM10.9353 8.71521H10.9333C10.9333 9.78839 10.936 10.8616 10.9319 11.9354C10.9305 12.2481 11.0104 12.528 11.233 12.7506C12.3348 13.8552 13.4367 14.9598 14.5454 16.0575C14.8417 16.3511 15.213 16.4303 15.6111 16.3128C16.4248 16.0718 16.6522 15.0915 16.035 14.4675C15.1298 13.5527 14.217 12.6441 13.3008 11.7402C13.1629 11.6043 13.1049 11.4678 13.1056 11.2726C13.1124 9.38151 13.1138 7.49047 13.1042 5.59942C13.1029 5.38437 13.0687 5.15158 12.9813 4.95838C12.7793 4.51122 12.2652 4.28798 11.7791 4.39311C11.3026 4.4962 10.9428 4.91537 10.9381 5.41987C10.9278 6.51832 10.9346 7.61744 10.9346 8.71657L10.9353 8.71521Z" fill="#6FC063"/>
</svg>
